# xmcd
#
# Track frame offsets:
#	182
#	16595
#	32695
#	43432
#	55620
#	70657
#	84632
#	96707
#	109807
#	123995
#	135532
#	149720
#	162620
#	175432
#	189795
#	204857
#
# Disc length: 2921 seconds
#
# Revision: 1
# Processed by: cddbd v1.5.2PL0 Copyright (c) Steve Scherf et al.
# Submitted via: MusicWizard 7.1.1b
#
DISCID=e30b6710
DTITLE=Tommy Dorsey - The Great Tommy Dorsey
DYEAR=1900
DGENRE=Big Band
TTITLE0=I'm Getting Sentimental Over You
TTITLE1=Star Dust
TTITLE2=Marie
TTITLE3=Song Of India
TTITLE4=Satan Takes A Holiday
TTITLE5=Smoke Gets In Your Eyes
TTITLE6=Once In A While
TTITLE7=The Lady Is A Tramp
TTITLE8=Who?
TTITLE9=A-Tisket, A-Tasket
TTITLE10=Boogie Woogie
TTITLE11=You Must Have Been A Beautiful Baby
TTITLE12=Sweet Sue - Just You
TTITLE13=Tea For Two
TTITLE14=March Of The Toys
TTITLE15=I'll Never Smile Again
EXTD=
EXTT0=
EXTT1=
EXTT2=
EXTT3=
EXTT4=
EXTT5=
EXTT6=
EXTT7=
EXTT8=
EXTT9=
EXTT10=
EXTT11=
EXTT12=
EXTT13=
EXTT14=
EXTT15=
PLAYORDER=
